<?xml version="1.0" encoding="iso-8859-1"?>
<!-- Generator: Adobe Illustrator 19.0.0, SVG Export Plug-In . SVG Version: 6.00 Build 0)  -->
<svg version="1.1" id="Layer_1" xmlns="http://www.w3.org/2000/svg" xmlns:xlink="http://www.w3.org/1999/xlink" x="0px" y="0px"
	 viewBox="0 0 512 512" style="enable-background:new 0 0 512 512;" xml:space="preserve">
<path style="fill:#D5DCED;" d="M384,512H128c-15.149,0-27.429-12.28-27.429-27.429V27.429C100.571,12.28,112.851,0,128,0h256
	c15.149,0,27.429,12.28,27.429,27.429v457.143C411.429,499.72,399.149,512,384,512z"/>
<path style="fill:#C7CFE2;" d="M411.429,227.546v-90.403h-18.286H100.571v90.403c6.737-1.379,12.977-4.146,18.286-8.139
	c7.645,5.751,17.146,9.165,27.429,9.165c10.282,0,19.784-3.414,27.429-9.165c7.645,5.751,17.146,9.165,27.429,9.165
	c10.282,0,19.784-3.414,27.429-9.165c7.645,5.751,17.146,9.165,27.429,9.165c10.282,0,19.784-3.414,27.429-9.165
	c7.645,5.751,17.146,9.165,27.429,9.165c10.282,0,19.784-3.414,27.429-9.165c7.645,5.751,17.146,9.165,27.429,9.165
	c10.282,0,19.784-3.414,27.429-9.165C398.451,223.4,404.69,226.167,411.429,227.546z"/>
<path style="fill:#FFDC64;" d="M374.857,137.143H137.143v292.571c0,5.049,4.094,9.143,9.143,9.143h219.429
	c5.049,0,9.143-4.094,9.143-9.143V137.143z"/>
<path style="fill:#FFC850;" d="M374.857,137.143H137.143v90.403c2.967,0.607,6,1.025,9.143,1.025
	c10.282,0,19.784-3.414,27.429-9.165c7.645,5.751,17.146,9.165,27.429,9.165c10.282,0,19.784-3.414,27.429-9.165
	c7.645,5.751,17.146,9.165,27.429,9.165c10.282,0,19.784-3.414,27.429-9.165c7.645,5.751,17.146,9.165,27.429,9.165
	c10.282,0,19.784-3.414,27.429-9.165c7.645,5.751,17.146,9.165,27.429,9.165c3.143,0,6.176-0.418,9.143-1.025V137.143z"/>
<path style="fill:#5B5D6E;" d="M274.286,45.714h-36.571c-5.054,0-9.143-4.094-9.143-9.143s4.089-9.143,9.143-9.143h36.571
	c5.054,0,9.143,4.094,9.143,9.143S279.339,45.714,274.286,45.714z"/>
<path style="fill:#464655;" d="M201.232,45.714c-5.054,0-9.187-4.094-9.187-9.143s4.045-9.143,9.098-9.143h0.089
	c5.054,0,9.143,4.094,9.143,9.143S206.286,45.714,201.232,45.714z"/>
<path style="fill:#AFB9D2;" d="M269.714,493.714h-27.429c-10.098,0-18.286-8.187-18.286-18.286c0-10.098,8.187-18.286,18.286-18.286
	h27.429c10.098,0,18.286,8.187,18.286,18.286C288,485.527,279.813,493.714,269.714,493.714z"/>
<path style="fill:#FAEBC8;" d="M370.751,73.143H141.249c-2.611,0-5.098,1.117-6.833,3.069L64,155.429h384l-70.415-79.217
	C375.85,74.259,373.363,73.143,370.751,73.143z"/>
<g>
	<polygon style="fill:#FF6991;" points="272.979,73.143 239.021,73.143 228.571,155.429 283.429,155.429 	"/>
	<polygon style="fill:#FF6991;" points="340.898,73.143 306.938,73.143 338.286,155.429 393.143,155.429 	"/>
</g>
<path style="fill:#F5DCB4;" d="M393.143,155.429H64v27.429c0,15.149,12.28,27.429,27.429,27.429s27.429-12.28,27.429-27.429
	c0,15.149,12.28,27.429,27.429,27.429s27.429-12.28,27.429-27.429c0,15.149,12.28,27.429,27.429,27.429s27.429-12.28,27.429-27.429
	c0,15.149,12.28,27.429,27.429,27.429c15.149,0,27.429-12.28,27.429-27.429c0,15.149,12.28,27.429,27.429,27.429
	c15.149,0,27.429-12.28,27.429-27.429c0,15.149,12.28,27.429,27.429,27.429c15.149,0,27.429-12.28,27.429-27.429
	c0,15.149,12.28,27.429,27.429,27.429c15.149,0,27.429-12.28,27.429-27.429v-27.429H393.143z"/>
<g>
	<path style="fill:#FF507D;" d="M146.286,210.286L146.286,210.286c-15.149,0-27.429-12.28-27.429-27.429v-27.429h54.857v27.429
		C173.714,198.006,161.434,210.286,146.286,210.286z"/>
	<path style="fill:#FF507D;" d="M365.714,210.286L365.714,210.286c-15.149,0-27.429-12.28-27.429-27.429v-27.429h54.857v27.429
		C393.143,198.006,380.863,210.286,365.714,210.286z"/>
	<path style="fill:#FF507D;" d="M256,210.286L256,210.286c-15.149,0-27.429-12.28-27.429-27.429v-27.429h54.857v27.429
		C283.429,198.006,271.149,210.286,256,210.286z"/>
</g>
<polygon style="fill:#FF6991;" points="171.102,73.143 118.857,155.429 173.714,155.429 205.062,73.143 "/>
<path style="fill:#AFB9D2;" d="M301.714,356.571h-59.536c-12.206,0-22.768-7.857-26.277-19.545l-21.562-71.883h-20.625
	c-5.054,0-9.143-4.094-9.143-9.143c0-5.049,4.089-9.143,9.143-9.143h20.625c8.143,0,15.178,5.237,17.518,13.035l1.571,5.25H320
	c5.054,0,9.143,4.094,9.143,9.143v54.857C329.143,344.267,316.839,356.571,301.714,356.571z M218.92,283.429l14.501,48.344
	c1.169,3.893,4.688,6.513,8.759,6.513h59.535c5.045,0,9.143-4.103,9.143-9.143v-45.714H218.92z"/>
<g>
	<circle style="fill:#7F8499;" cx="219.429" cy="384" r="13.714"/>
	<circle style="fill:#7F8499;" cx="310.857" cy="384" r="13.714"/>
</g>
<g>
</g>
<g>
</g>
<g>
</g>
<g>
</g>
<g>
</g>
<g>
</g>
<g>
</g>
<g>
</g>
<g>
</g>
<g>
</g>
<g>
</g>
<g>
</g>
<g>
</g>
<g>
</g>
<g>
</g>
</svg>
