<?xml version="1.0" encoding="iso-8859-1"?>
<!-- Generator: Adobe Illustrator 19.0.0, SVG Export Plug-In . SVG Version: 6.00 Build 0)  -->
<svg version="1.1" id="Layer_1" xmlns="http://www.w3.org/2000/svg" xmlns:xlink="http://www.w3.org/1999/xlink" x="0px" y="0px"
	 viewBox="0 0 508 508" style="enable-background:new 0 0 508 508;" xml:space="preserve">
<g>
	<rect x="30.3" y="167.4" style="fill:#FFD15C;" width="441.4" height="340.6"/>
	<rect x="30.3" style="fill:#FFD15C;" width="441.4" height="76.8"/>
</g>
<rect y="76.8" style="fill:#F2F2F2;" width="72.6" height="90.6"/>
<rect x="72.6" y="76.8" style="fill:#FF7058;" width="72.6" height="90.6"/>
<rect x="145.1" y="76.8" style="fill:#F2F2F2;" width="72.6" height="90.6"/>
<rect x="217.7" y="76.8" style="fill:#FF7058;" width="72.6" height="90.6"/>
<rect x="290.3" y="76.8" style="fill:#F2F2F2;" width="72.6" height="90.6"/>
<rect x="362.9" y="76.8" style="fill:#FF7058;" width="72.6" height="90.6"/>
<rect x="435.4" y="76.8" style="fill:#F2F2F2;" width="72.6" height="90.6"/>
<g>
	<rect x="181.9" y="315.4" style="fill:#40596B;" width="138.2" height="192.6"/>
	<rect x="343.9" y="373" style="fill:#40596B;" width="104" height="77.4"/>
</g>
<rect x="355.1" y="384.1" style="fill:#84DBFF;" width="81.7" height="55.1"/>
<rect x="54.1" y="373" style="fill:#40596B;" width="104" height="77.4"/>
<rect x="65.3" y="384.1" style="fill:#84DBFF;" width="81.7" height="55.1"/>
<circle style="fill:#FFD15C;" cx="204.5" cy="411.7" r="8.6"/>
<g>
	<path style="fill:#F1543F;" d="M72.6,213.2c0,20,16.2,36.3,36.3,36.3s36.3-16.2,36.3-36.3v-45.8H72.6V213.2z"/>
	<path style="fill:#F1543F;" d="M217.7,213.2c0,20,16.2,36.3,36.3,36.3c20,0,36.3-16.2,36.3-36.3v-45.8h-72.6L217.7,213.2
		L217.7,213.2z"/>
	<path style="fill:#F1543F;" d="M362.9,167.4v45.8c0,20,16.2,36.3,36.3,36.3c20,0,36.3-16.2,36.3-36.3v-45.8H362.9z"/>
</g>
<g>
	<path style="fill:#CDD6E0;" d="M0,213.2c0,20,16.2,36.3,36.3,36.3s36.3-16.2,36.3-36.3v-45.8H0V213.2z"/>
	<path style="fill:#CDD6E0;" d="M145.1,213.2c0,20,16.2,36.3,36.3,36.3c20,0,36.3-16.2,36.3-36.3v-45.8h-72.6V213.2z"/>
	<path style="fill:#CDD6E0;" d="M290.3,213.2c0,20,16.2,36.3,36.3,36.3s36.3-16.2,36.3-36.3v-45.8h-72.6L290.3,213.2L290.3,213.2z"
		/>
	<path style="fill:#CDD6E0;" d="M435.4,167.4v45.8c0,20,16.2,36.3,36.3,36.3c20,0,36.3-16.2,36.3-36.3v-45.8H435.4z"/>
</g>
<g>
</g>
<g>
</g>
<g>
</g>
<g>
</g>
<g>
</g>
<g>
</g>
<g>
</g>
<g>
</g>
<g>
</g>
<g>
</g>
<g>
</g>
<g>
</g>
<g>
</g>
<g>
</g>
<g>
</g>
</svg>
